<svg height="512pt" viewBox="-39 0 511 512" width="512pt" xmlns="http://www.w3.org/2000/svg"><path d="m382.4375 410.929688c-23.660156-7.148438-54.910156-12.539063-90.910156-15.722657v-89.894531c14.988281-7.425781 24.953125-22.808594 24.953125-40.3125v-70c0-24.8125-20.1875-45-45-45h-109.953125c-24.8125 0-45 20.1875-45 45v70c0 17.503906 9.960937 32.886719 24.953125 40.3125v89.886719c-36.777344 3.257812-68.574219 8.816406-92.328125 16.164062-12.035156 3.722657-48.652344 15.050781-48.652344 40.636719 0 20.59375 23.128906 35.78125 70.710938 46.433594 39.078124 8.75 90.679687 13.566406 145.292968 13.566406 54.613282 0 106.210938-4.816406 145.292969-13.566406 47.582031-10.652344 70.710937-25.839844 70.710937-46.433594 0-25.9375-37.6875-37.328125-50.070312-41.070312zm-235.910156-215.929688c0-8.269531 6.730468-15 15-15h109.949218c8.273438 0 15 6.730469 15 15v70c0 7.214844-5.363281 13.570312-12.472656 14.785156-7.207031 1.230469-12.480468 7.476563-12.480468 14.785156v115.429688c0 8.269531-6.726563 15-15 15h-60.042969c-8.273438 0-15-6.730469-15-15v-115.429688c0-7.308593-5.273438-13.554687-12.480469-14.785156-7.109375-1.214844-12.476562-7.570312-12.476562-14.785156v-70zm200.226562 275.945312c-35.894531 7.128907-82.148437 11.054688-130.25 11.054688-48.101562 0-94.359375-3.925781-130.253906-11.054688-34.839844-6.917968-49.757812-14.851562-54.496094-18.910156 3.082032-2.648437 11.554688-8.113281 33.207032-14.027344 21.019531-5.742187 48.253906-10.179687 79.128906-12.917968 6.21875 17.414062 22.871094 29.910156 42.390625 29.910156h60.046875c19.519531 0 36.171875-12.496094 42.386718-29.910156 30.191407 2.675781 56.898438 6.972656 77.78125 12.554687 22.652344 6.046875 31.410157 11.683594 34.558594 14.390625-4.738281 4.058594-19.660156 11.992188-54.5 18.910156zm0 0"/><path d="m213.503906 120c33.085938 0 60-26.914062 60-60s-26.914062-60-60-60c-33.082031 0-60 26.914062-60 60s26.917969 60 60 60zm0-90c16.542969 0 30 13.457031 30 30s-13.457031 30-30 30c-16.539062 0-30-13.457031-30-30s13.460938-30 30-30zm0 0"/></svg>